<?xml version="1.0" encoding="UTF-8"?>
<svg id="Camada_4" data-name="Camada 4" xmlns="http://www.w3.org/2000/svg" viewBox="0 0 250.81 250.81">
  <defs>
    <style>
      .cls-1 {
        fill: #0d0d0d;
      }
    </style>
  </defs>
  <path class="cls-1" d="M250.38,114.78c0-.09-.03-.18-.05-.26,0-.01,0-.03,0-.04h0c-.14-.49-.57-.85-1.1-.85l-99.68-.13,30.35-30.35-14.14-14.14-30.35,30.35v-42.92h-18.84c-.64,0-1.16.56-1.16,1.24v41.68l-30.35-30.35-13.32,13.32c-.45.45-.43,1.21.06,1.7l29.47,29.47h-42.92v18.84c0,.64.56,1.16,1.24,1.16h41.68l-30.35,30.35,13.32,13.32c.45.45,1.21.43,1.7-.06l29.47-29.47v42.92h20v-42.92l30.35,30.35,14.14-14.14-30.22-30.22h80.81c-4.21,54.29-49.73,97.19-105.09,97.19-58.12,0-105.4-47.28-105.4-105.4S67.28,20,125.4,20c42.06,0,78.42,24.77,95.32,60.48h21.76C224.37,33.46,178.73,0,125.4,0,56.26,0,0,56.26,0,125.4s56.26,125.4,125.4,125.4,125.4-56.26,125.4-125.4c0-3.43-.15-6.83-.43-10.19v-.43Z"/>
</svg>